# xmcd CD database file
#
# Track frame offsets:
#	150
#	25495
#	51060
#	68038
#	117763
#	150045
#	173288
#	199358
#	219038
#
# Disc length: 3048 seconds
#
# Revision: 4
# Processed by: cddbd v1.5.1PL2 Copyright (c) Steve Scherf et al.
# Submitted via: CDex 1.51
#
DISCID=660be609
DTITLE=Art Lande and Jan Garbarek  - Red Lanta (Recorded an Nov.19 and 20, 1973 at Arne Bendiksen Studio, Oslo)
DYEAR=1974
DGENRE=Jazz
TTITLE0=Jan Garbarek and Art Lande - Quintennaisance
TTITLE1=Jan Garbarek and Art Lande - Velvet
TTITLE2=Jan Garbarek and Art Lande - Waltz For A
TTITLE3=Jan Garbarek and Art Lande - Awakening
TTITLE4=Jan Garbarek and Art Lande - Verdulac
TTITLE5=Jan Garbarek and Art Lande - Miss Fortune
TTITLE6=Jan Garbarek and Art Lande - Open Return
TTITLE7=Jan Garbarek and Art Lande - Meanwhile
TTITLE8=Jan Garbarek and Art Lande - Cherifen Dream Of Renate
EXTD=YEAR: 1974
EXTT0=
EXTT1=
EXTT2=
EXTT3=
EXTT4=
EXTT5=
EXTT6=
EXTT7=
EXTT8=
PLAYORDER=
